<svg width="163" height="163" viewBox="0 0 163 163" fill="none" xmlns="http://www.w3.org/2000/svg">
<path d="M95.0833 95.082H115.458M95.0833 67.9154H115.458M61.125 64.5195V57.7279M61.125 64.5195H74.709M61.125 64.5195C48.9079 64.5193 47.5542 67.455 47.5423 73.5694C47.5304 79.684 47.5423 81.4987 61.1256 81.4987C74.709 81.4987 74.709 82.8944 74.709 89.4225C74.709 94.3282 74.709 98.4779 61.1256 98.4779M61.1256 98.4779L61.125 105.27M61.1256 98.4779H47.5423M42.1083 129.04H120.892C128.499 129.04 132.303 129.04 135.209 127.56C137.764 126.258 139.842 124.18 141.144 121.624C142.625 118.718 142.625 114.914 142.625 107.307V55.6904C142.625 48.083 142.625 44.2793 141.144 41.3737C139.842 38.8178 137.764 36.7398 135.209 35.4375C132.303 33.957 128.499 33.957 120.892 33.957H42.1083C34.501 33.957 30.6972 33.957 27.7916 35.4375C25.2357 36.7398 23.1577 38.8178 21.8555 41.3737C20.375 44.2793 20.375 48.0829 20.375 55.6904V107.307C20.375 114.914 20.375 118.718 21.8555 121.624C23.1577 124.18 25.2357 126.258 27.7916 127.56C30.6972 129.04 34.5009 129.04 42.1083 129.04Z" stroke="#034F71" stroke-width="13.5833" stroke-linecap="round" stroke-linejoin="round"/>
</svg>
