<svg width="161" height="33" viewBox="0 0 161 33" fill="none" xmlns="http://www.w3.org/2000/svg">
<path d="M14.9567 3.35499C15.2998 2.29898 16.7938 2.29898 17.1369 3.35499L19.3922 10.2961C19.5457 10.7683 19.9858 11.0881 20.4823 11.0881H27.7806C28.891 11.0881 29.3526 12.5089 28.4543 13.1616L22.5499 17.4514C22.1482 17.7433 21.9801 18.2606 22.1335 18.7329L24.3888 25.674C24.7319 26.73 23.5233 27.6081 22.625 26.9555L16.7206 22.6657C16.3188 22.3738 15.7748 22.3738 15.3731 22.6657L9.46867 26.9555C8.57038 27.6081 7.36173 26.73 7.70484 25.674L9.96014 18.7329C10.1136 18.2606 9.94549 17.7433 9.54376 17.4514L3.63932 13.1616C2.74102 12.5089 3.20268 11.0881 4.31304 11.0881H11.6113C12.1079 11.0881 12.548 10.7683 12.7014 10.2961L14.9567 3.35499Z" fill="#E1F161"/>
<path d="M47.0505 3.35499C47.3936 2.29898 48.8876 2.29898 49.2307 3.35499L51.486 10.2961C51.6394 10.7683 52.0795 11.0881 52.5761 11.0881H59.8744C60.9847 11.0881 61.4464 12.5089 60.5481 13.1616L54.6437 17.4514C54.2419 17.7433 54.0738 18.2606 54.2273 18.7329L56.4826 25.674C56.8257 26.73 55.617 27.6081 54.7187 26.9555L48.8143 22.6657C48.4126 22.3738 47.8686 22.3738 47.4669 22.6657L41.5624 26.9555C40.6641 27.6081 39.4555 26.73 39.7986 25.674L42.0539 18.7329C42.2073 18.2606 42.0392 17.7433 41.6375 17.4514L35.7331 13.1616C34.8348 12.5089 35.2964 11.0881 36.4068 11.0881H43.7051C44.2016 11.0881 44.6417 10.7683 44.7952 10.2961L47.0505 3.35499Z" fill="#E1F161"/>
<path d="M79.144 3.35499C79.4871 2.29898 80.9811 2.29898 81.3242 3.35499L83.5795 10.2961C83.7329 10.7683 84.173 11.0881 84.6696 11.0881H91.9679C93.0782 11.0881 93.5399 12.5089 92.6416 13.1616L86.7372 17.4514C86.3354 17.7433 86.1673 18.2606 86.3208 18.7329L88.5761 25.674C88.9192 26.73 87.7105 27.6081 86.8123 26.9555L80.9078 22.6657C80.5061 22.3738 79.9621 22.3738 79.5604 22.6657L73.6559 26.9555C72.7576 27.6081 71.549 26.73 71.8921 25.674L74.1474 18.7329C74.3008 18.2606 74.1327 17.7433 73.731 17.4514L67.8266 13.1616C66.9283 12.5089 67.3899 11.0881 68.5003 11.0881H75.7986C76.2951 11.0881 76.7352 10.7683 76.8887 10.2961L79.144 3.35499Z" fill="#E1F161"/>
<path d="M111.238 3.35499C111.581 2.29898 113.075 2.29898 113.418 3.35499L115.673 10.2961C115.827 10.7683 116.267 11.0881 116.763 11.0881H124.062C125.172 11.0881 125.634 12.5089 124.735 13.1616L118.831 17.4514C118.429 17.7433 118.261 18.2606 118.415 18.7329L120.67 25.674C121.013 26.73 119.804 27.6081 118.906 26.9555L113.002 22.6657C112.6 22.3738 112.056 22.3738 111.654 22.6657L105.75 26.9555C104.851 27.6081 103.643 26.73 103.986 25.674L106.241 18.7329C106.395 18.2606 106.226 17.7433 105.825 17.4514L99.9203 13.1616C99.022 12.5089 99.4837 11.0881 100.594 11.0881H107.892C108.389 11.0881 108.829 10.7683 108.982 10.2961L111.238 3.35499Z" fill="#E1F161"/>
<path d="M143.331 3.35499C143.675 2.29898 145.169 2.29898 145.512 3.35499L147.767 10.2961C147.92 10.7683 148.361 11.0881 148.857 11.0881H156.155C157.266 11.0881 157.727 12.5089 156.829 13.1616L150.925 17.4514C150.523 17.7433 150.355 18.2606 150.508 18.7329L152.764 25.674C153.107 26.73 151.898 27.6081 151 26.9555L145.095 22.6657C144.694 22.3738 144.15 22.3738 143.748 22.6657L137.843 26.9555C136.945 27.6081 135.736 26.73 136.08 25.674L138.335 18.7329C138.488 18.2606 138.32 17.7433 137.919 17.4514L132.014 13.1616C131.116 12.5089 131.577 11.0881 132.688 11.0881H139.986C140.483 11.0881 140.923 10.7683 141.076 10.2961L143.331 3.35499Z" fill="#E1F161"/>
</svg>
