<svg width="137" height="109" viewBox="0 0 137 109" fill="none" xmlns="http://www.w3.org/2000/svg">
<path d="M82.0833 68.082H102.458M82.0833 40.9154H102.458M48.125 37.5195V30.7279M48.125 37.5195H61.709M48.125 37.5195C35.9079 37.5193 34.5542 40.455 34.5423 46.5694C34.5304 52.684 34.5423 54.4987 48.1256 54.4987C61.709 54.4987 61.709 55.8944 61.709 62.4225C61.709 67.3282 61.709 71.4779 48.1256 71.4779M48.1256 71.4779L48.125 78.2695M48.1256 71.4779H34.5423M29.1083 102.04H107.892C115.499 102.04 119.303 102.04 122.209 100.56C124.764 99.2578 126.842 97.1796 128.144 94.6239C129.625 91.7184 129.625 87.9144 129.625 80.307V28.6904C129.625 21.083 129.625 17.2793 128.144 14.3737C126.842 11.8178 124.764 9.73978 122.209 8.43755C119.303 6.95703 115.499 6.95703 107.892 6.95703H29.1083C21.501 6.95703 17.6972 6.95703 14.7916 8.43755C12.2357 9.73978 10.1577 11.8178 8.85551 14.3737C7.375 17.2793 7.375 21.0829 7.375 28.6904V80.307C7.375 87.9144 7.375 91.7184 8.85551 94.6239C10.1577 97.1796 12.2357 99.2578 14.7916 100.56C17.6972 102.04 21.5009 102.04 29.1083 102.04Z" stroke="#034F71" stroke-width="13.5833" stroke-linecap="round" stroke-linejoin="round"/>
</svg>
